<svg xmlns="http://www.w3.org/2000/svg" fill="none" viewBox="0 0 24 24" stroke-width="1.5" stroke="currentColor"
  aria-hidden="true" data-slot="icon" class="size-6">
  <g id="inbox_stack">
    <path stroke-linecap="round" stroke-linejoin="round"
      d="m7.875 14.25 1.214 1.942a2.25 2.25 0 0 0 1.908 1.058h2.006c.776 0 1.497-.4 1.908-1.058l1.214-1.942M2.41 9h4.636a2.25 2.25 0 0 1 1.872 1.002l.164.246a2.25 2.25 0 0 0 1.872 1.002h2.092a2.25 2.25 0 0 0 1.872-1.002l.164-.246A2.25 2.25 0 0 1 16.954 9h4.636M2.41 9a2.25 2.25 0 0 0-.16.832V12a2.25 2.25 0 0 0 2.25 2.25h15A2.25 2.25 0 0 0 21.75 12V9.832c0-.287-.055-.57-.16-.832M2.41 9a2.25 2.25 0 0 1 .382-.632l3.285-3.832a2.25 2.25 0 0 1 1.708-.786h8.43c.657 0 1.281.287 1.709.786l3.284 3.832c.163.19.291.404.382.632M4.5 20.25h15A2.25 2.25 0 0 0 21.75 18v-2.625c0-.621-.504-1.125-1.125-1.125H3.375c-.621 0-1.125.504-1.125 1.125V18a2.25 2.25 0 0 0 2.25 2.25Z" />
  </g>
  <g id="user_group">
    <path stroke-linecap="round" stroke-linejoin="round"
      d="M18 18.72a9.094 9.094 0 0 0 3.741-.479 3 3 0 0 0-4.682-2.72m.94 3.198.001.031c0 .225-.012.447-.037.666A11.944 11.944 0 0 1 12 21c-2.17 0-4.207-.576-5.963-1.584A6.062 6.062 0 0 1 6 18.719m12 0a5.971 5.971 0 0 0-.941-3.197m0 0A5.995 5.995 0 0 0 12 12.75a5.995 5.995 0 0 0-5.058 2.772m0 0a3 3 0 0 0-4.681 2.72 8.986 8.986 0 0 0 3.74.477m.94-3.197a5.971 5.971 0 0 0-.94 3.197M15 6.75a3 3 0 1 1-6 0 3 3 0 0 1 6 0Zm6 3a2.25 2.25 0 1 1-4.5 0 2.25 2.25 0 0 1 4.5 0Zm-13.5 0a2.25 2.25 0 1 1-4.5 0 2.25 2.25 0 0 1 4.5 0Z" />
  </g>
  <g id="rectangle_stack">
    <path stroke-linecap="round" stroke-linejoin="round"
      d="M6 6.878V6a2.25 2.25 0 0 1 2.25-2.25h7.5A2.25 2.25 0 0 1 18 6v.878m-12 0c.235-.083.487-.128.75-.128h10.5c.263 0 .515.045.75.128m-12 0A2.25 2.25 0 0 0 4.5 9v.878m13.5-3A2.25 2.25 0 0 1 19.5 9v.878m0 0a2.246 2.246 0 0 0-.75-.128H5.25c-.263 0-.515.045-.75.128m15 0A2.25 2.25 0 0 1 21 12v6a2.25 2.25 0 0 1-2.25 2.25H5.25A2.25 2.25 0 0 1 3 18v-6c0-.98.626-1.813 1.5-2.122" />
  </g>
  <g id="chart_bar_square">
    <path stroke-linecap="round" stroke-linejoin="round"
      d="M7.5 14.25v2.25m3-4.5v4.5m3-6.75v6.75m3-9v9M6 20.25h12A2.25 2.25 0 0 0 20.25 18V6A2.25 2.25 0 0 0 18 3.75H6A2.25 2.25 0 0 0 3.75 6v12A2.25 2.25 0 0 0 6 20.25Z" />
  </g>
  <g id="chevron_down">
    <path stroke-linecap="round" stroke-linejoin="round" d="m19.5 8.25-7.5 7.5-7.5-7.5" />
  </g>
  <g id="moon">
    <path stroke-linecap="round" stroke-linejoin="round"
      d="M21.752 15.002A9.72 9.72 0 0 1 18 15.75c-5.385 0-9.75-4.365-9.75-9.75 0-1.33.266-2.597.748-3.752A9.753 9.753 0 0 0 3 11.25C3 16.635 7.365 21 12.75 21a9.753 9.753 0 0 0 9.002-5.998Z" />
  </g>
  <g id="question_mark_circle">
    <path stroke-linecap="round" stroke-linejoin="round"
      d="M21.752 15.002A9.72 9.72 0 0 1 18 15.75c-5.385 0-9.75-4.365-9.75-9.75 0-1.33.266-2.597.748-3.752A9.753 9.753 0 0 0 3 11.25C3 16.635 7.365 21 12.75 21a9.753 9.753 0 0 0 9.002-5.998Z" />
  </g>
  <g id="arrow_left_start_on_rectangle">
    <path stroke-linecap="round" stroke-linejoin="round"
      d="M8.25 9V5.25A2.25 2.25 0 0 1 10.5 3h6a2.25 2.25 0 0 1 2.25 2.25v13.5A2.25 2.25 0 0 1 16.5 21h-6a2.25 2.25 0 0 1-2.25-2.25V15m-3 0-3-3m0 0 3-3m-3 3H15" />
  </g>
  <g id="arrow_left">
    <path stroke-linecap="round" stroke-linejoin="round" d="M10.5 19.5 3 12m0 0 7.5-7.5M3 12h18" />
  </g>
  <g id="trash">
    <path stroke-linecap="round" stroke-linejoin="round"
      d="m14.74 9-.346 9m-4.788 0L9.26 9m9.968-3.21c.342.052.682.107 1.022.166m-1.022-.165L18.16 19.673a2.25 2.25 0 0 1-2.244 2.077H8.084a2.25 2.25 0 0 1-2.244-2.077L4.772 5.79m14.456 0a48.108 48.108 0 0 0-3.478-.397m-12 .562c.34-.059.68-.114 1.022-.165m0 0a48.11 48.11 0 0 1 3.478-.397m7.5 0v-.916c0-1.18-.91-2.164-2.09-2.201a51.964 51.964 0 0 0-3.32 0c-1.18.037-2.09 1.022-2.09 2.201v.916m7.5 0a48.667 48.667 0 0 0-7.5 0">
    </path>
  </g>
  <g id="edit">
    <path stroke-linecap="round" stroke-linejoin="round"
      d="m16.862 4.487 1.687-1.688a1.875 1.875 0 1 1 2.652 2.652L10.582 16.07a4.5 4.5 0 0 1-1.897 1.13L6 18l.8-2.685a4.5 4.5 0 0 1 1.13-1.897l8.932-8.931Zm0 0L19.5 7.125M18 14v4.75A2.25 2.25 0 0 1 15.75 21H5.25A2.25 2.25 0 0 1 3 18.75V8.25A2.25 2.25 0 0 1 5.25 6H10">
    </path>
  </g>
</svg>